<svg width="850" height="60" viewBox="0 0 850 60" fill="none" xmlns="http://www.w3.org/2000/svg">
<rect x="1" y="1" width="848" height="58" rx="12" stroke="url(#paint0_linear_1_206)"/>
<path d="M36.108 28.2898H33.983C33.9223 27.9413 33.8106 27.6326 33.6477 27.3636C33.4848 27.0909 33.2822 26.8598 33.0398 26.6705C32.7973 26.4811 32.5208 26.339 32.2102 26.2443C31.9034 26.1458 31.572 26.0966 31.2159 26.0966C30.5833 26.0966 30.0227 26.2557 29.5341 26.5739C29.0455 26.8883 28.6629 27.3504 28.3864 27.9602C28.1098 28.5663 27.9716 29.3068 27.9716 30.1818C27.9716 31.072 28.1098 31.822 28.3864 32.4318C28.6667 33.0379 29.0492 33.4962 29.5341 33.8068C30.0227 34.1136 30.5814 34.267 31.2102 34.267C31.5587 34.267 31.8845 34.2216 32.1875 34.1307C32.4943 34.036 32.7689 33.8977 33.0114 33.7159C33.2576 33.5341 33.464 33.3106 33.6307 33.0455C33.8011 32.7803 33.9186 32.4773 33.983 32.1364L36.108 32.1477C36.0284 32.7008 35.8561 33.2197 35.5909 33.7045C35.3295 34.1894 34.9867 34.6174 34.5625 34.9886C34.1383 35.3561 33.642 35.6439 33.0739 35.8523C32.5057 36.0568 31.875 36.1591 31.1818 36.1591C30.1591 36.1591 29.2462 35.9223 28.4432 35.4489C27.6402 34.9754 27.0076 34.2917 26.5455 33.3977C26.0833 32.5038 25.8523 31.4318 25.8523 30.1818C25.8523 28.928 26.0852 27.8561 26.5511 26.9659C27.017 26.072 27.6515 25.3883 28.4545 24.9148C29.2576 24.4413 30.1667 24.2045 31.1818 24.2045C31.8295 24.2045 32.4318 24.2955 32.9886 24.4773C33.5455 24.6591 34.0417 24.9261 34.4773 25.2784C34.9129 25.6269 35.2708 26.0549 35.5511 26.5625C35.8352 27.0663 36.0208 27.642 36.108 28.2898ZM40.4588 36.1761C39.9058 36.1761 39.4077 36.0777 38.9645 35.8807C38.5251 35.6799 38.1766 35.3845 37.919 34.9943C37.6652 34.6042 37.5384 34.1231 37.5384 33.5511C37.5384 33.0587 37.6293 32.6515 37.8111 32.3295C37.9929 32.0076 38.241 31.75 38.5554 31.5568C38.8698 31.3636 39.224 31.2178 39.6179 31.1193C40.0156 31.017 40.4266 30.9432 40.8509 30.8977C41.3622 30.8447 41.777 30.7973 42.0952 30.7557C42.4134 30.7102 42.6444 30.642 42.7884 30.5511C42.9361 30.4564 43.0099 30.3106 43.0099 30.1136V30.0795C43.0099 29.6515 42.883 29.3201 42.6293 29.0852C42.3755 28.8504 42.0099 28.733 41.5327 28.733C41.0289 28.733 40.6293 28.8428 40.3338 29.0625C40.0421 29.2822 39.8452 29.5417 39.7429 29.8409L37.8224 29.5682C37.974 29.0379 38.224 28.5947 38.5724 28.2386C38.9209 27.8788 39.3471 27.6098 39.8509 27.4318C40.3546 27.25 40.9115 27.1591 41.5213 27.1591C41.9418 27.1591 42.3603 27.2083 42.777 27.3068C43.1937 27.4053 43.5743 27.5682 43.919 27.7955C44.2637 28.0189 44.5402 28.3239 44.7486 28.7102C44.9607 29.0966 45.0668 29.5795 45.0668 30.1591V36H43.0895V34.8011H43.0213C42.8963 35.0436 42.7202 35.2708 42.4929 35.483C42.2694 35.6913 41.9872 35.8598 41.6463 35.9886C41.3092 36.1136 40.9134 36.1761 40.4588 36.1761ZM40.9929 34.6648C41.4058 34.6648 41.7637 34.5833 42.0668 34.4205C42.3698 34.2538 42.6027 34.0341 42.7656 33.7614C42.9323 33.4886 43.0156 33.1913 43.0156 32.8693V31.8409C42.9512 31.8939 42.8414 31.9432 42.6861 31.9886C42.5346 32.0341 42.3641 32.0739 42.1747 32.108C41.9853 32.142 41.7978 32.1723 41.6122 32.1989C41.4266 32.2254 41.2656 32.2481 41.1293 32.267C40.8224 32.3087 40.5478 32.3769 40.3054 32.4716C40.063 32.5663 39.8717 32.6989 39.7315 32.8693C39.5914 33.036 39.5213 33.2519 39.5213 33.517C39.5213 33.8958 39.6596 34.1818 39.9361 34.375C40.2126 34.5682 40.5649 34.6648 40.9929 34.6648ZM49.1918 30.8864V36H47.1349V27.2727H49.1009V28.7557H49.2031C49.4039 28.267 49.724 27.8788 50.1634 27.5909C50.6065 27.303 51.1539 27.1591 51.8054 27.1591C52.4077 27.1591 52.9323 27.2879 53.3793 27.5455C53.83 27.803 54.1785 28.1761 54.4247 28.6648C54.6747 29.1534 54.7978 29.7462 54.794 30.4432V36H52.7372V30.7614C52.7372 30.178 52.5857 29.7216 52.2827 29.392C51.9834 29.0625 51.5687 28.8977 51.0384 28.8977C50.6785 28.8977 50.3584 28.9773 50.0781 29.1364C49.8016 29.2917 49.5838 29.517 49.4247 29.8125C49.2694 30.108 49.1918 30.4659 49.1918 30.8864ZM64.7173 36.1705C63.8423 36.1705 63.0866 35.9886 62.4503 35.625C61.8177 35.2576 61.331 34.7386 60.9901 34.0682C60.6491 33.3939 60.4787 32.6004 60.4787 31.6875C60.4787 30.7898 60.6491 30.0019 60.9901 29.3239C61.3348 28.642 61.8158 28.1117 62.4332 27.733C63.0507 27.3504 63.776 27.1591 64.6094 27.1591C65.1473 27.1591 65.6548 27.2462 66.1321 27.4205C66.6132 27.5909 67.0374 27.8561 67.4048 28.2159C67.776 28.5758 68.0677 29.0341 68.2798 29.5909C68.492 30.1439 68.598 30.803 68.598 31.5682V32.1989H61.4446V30.8125H66.6264C66.6226 30.4186 66.5374 30.0682 66.3707 29.7614C66.2041 29.4508 65.9711 29.2064 65.6719 29.0284C65.3764 28.8504 65.0317 28.7614 64.6378 28.7614C64.2173 28.7614 63.848 28.8636 63.5298 29.0682C63.2116 29.2689 62.9635 29.5341 62.7855 29.8636C62.6113 30.1894 62.5223 30.5473 62.5185 30.9375V32.1477C62.5185 32.6553 62.6113 33.0909 62.7969 33.4545C62.9825 33.8144 63.242 34.0909 63.5753 34.2841C63.9086 34.4735 64.2988 34.5682 64.7457 34.5682C65.045 34.5682 65.3158 34.5265 65.5582 34.4432C65.8007 34.3561 66.0109 34.2292 66.1889 34.0625C66.367 33.8958 66.5014 33.6894 66.5923 33.4432L68.5128 33.6591C68.3916 34.1667 68.1605 34.6098 67.8196 34.9886C67.4825 35.3636 67.0507 35.6553 66.5241 35.8636C65.9976 36.0682 65.3954 36.1705 64.7173 36.1705ZM73.5767 36.1534C72.8911 36.1534 72.2775 35.9773 71.7358 35.625C71.1941 35.2727 70.7661 34.7614 70.4517 34.0909C70.1373 33.4205 69.9801 32.6061 69.9801 31.6477C69.9801 30.678 70.1392 29.8598 70.4574 29.1932C70.7794 28.5227 71.2131 28.017 71.7585 27.6761C72.304 27.3314 72.9119 27.1591 73.5824 27.1591C74.0938 27.1591 74.5142 27.2462 74.8438 27.4205C75.1733 27.5909 75.4347 27.7973 75.6278 28.0398C75.821 28.2784 75.9706 28.5038 76.0767 28.7159H76.1619V24.3636H78.2244V36H76.2017V34.625H76.0767C75.9706 34.8371 75.8172 35.0625 75.6165 35.3011C75.4157 35.536 75.1506 35.7367 74.821 35.9034C74.4915 36.0701 74.0767 36.1534 73.5767 36.1534ZM74.1506 34.4659C74.5862 34.4659 74.9574 34.3485 75.2642 34.1136C75.571 33.875 75.804 33.5436 75.9631 33.1193C76.1222 32.6951 76.2017 32.2008 76.2017 31.6364C76.2017 31.072 76.1222 30.5814 75.9631 30.1648C75.8078 29.7481 75.5767 29.4242 75.2699 29.1932C74.9669 28.9621 74.5938 28.8466 74.1506 28.8466C73.6922 28.8466 73.3097 28.9659 73.0028 29.2045C72.696 29.4432 72.465 29.7727 72.3097 30.1932C72.1544 30.6136 72.0767 31.0947 72.0767 31.6364C72.0767 32.1818 72.1544 32.6686 72.3097 33.0966C72.4688 33.5208 72.7017 33.8561 73.0085 34.1023C73.3191 34.3447 73.6998 34.4659 74.1506 34.4659ZM85.9787 32.3295V27.2727H88.0355V36H86.0412V34.4489H85.9503C85.7533 34.9375 85.4295 35.3371 84.9787 35.6477C84.5317 35.9583 83.9806 36.1136 83.3253 36.1136C82.7533 36.1136 82.2476 35.9867 81.8082 35.733C81.3726 35.4754 81.0317 35.1023 80.7855 34.6136C80.5393 34.1212 80.4162 33.5265 80.4162 32.8295V27.2727H82.473V32.5114C82.473 33.0644 82.6245 33.5038 82.9276 33.8295C83.2306 34.1553 83.6283 34.3182 84.1207 34.3182C84.4238 34.3182 84.7173 34.2443 85.0014 34.0966C85.2855 33.9489 85.5185 33.7292 85.7003 33.4375C85.8859 33.142 85.9787 32.7727 85.9787 32.3295ZM93.9574 36.1705C93.0862 36.1705 92.3381 35.9792 91.7131 35.5966C91.0919 35.214 90.6127 34.6856 90.2756 34.0114C89.9422 33.3333 89.7756 32.553 89.7756 31.6705C89.7756 30.7841 89.946 30.0019 90.2869 29.3239C90.6278 28.642 91.1089 28.1117 91.7301 27.733C92.3551 27.3504 93.0938 27.1591 93.946 27.1591C94.6544 27.1591 95.2813 27.2898 95.8267 27.5511C96.3759 27.8087 96.8134 28.1742 97.1392 28.6477C97.465 29.1174 97.6506 29.6667 97.696 30.2955H95.7301C95.6506 29.875 95.4612 29.5246 95.1619 29.2443C94.8665 28.9602 94.4706 28.8182 93.9744 28.8182C93.554 28.8182 93.1847 28.9318 92.8665 29.1591C92.5483 29.3826 92.3002 29.7045 92.1222 30.125C91.9479 30.5455 91.8608 31.0492 91.8608 31.6364C91.8608 32.2311 91.9479 32.7424 92.1222 33.1705C92.2964 33.5947 92.5407 33.9223 92.8551 34.1534C93.1733 34.3807 93.5464 34.4943 93.9744 34.4943C94.2775 34.4943 94.5483 34.4375 94.7869 34.3239C95.0294 34.2064 95.232 34.0379 95.3949 33.8182C95.5578 33.5985 95.6695 33.3314 95.7301 33.017H97.696C97.6468 33.6345 97.465 34.1818 97.1506 34.6591C96.8362 35.1326 96.4081 35.5038 95.8665 35.7727C95.3248 36.0379 94.6884 36.1705 93.9574 36.1705ZM101.896 36.1761C101.343 36.1761 100.845 36.0777 100.402 35.8807C99.9626 35.6799 99.6141 35.3845 99.3565 34.9943C99.1027 34.6042 98.9759 34.1231 98.9759 33.5511C98.9759 33.0587 99.0668 32.6515 99.2486 32.3295C99.4304 32.0076 99.6785 31.75 99.9929 31.5568C100.307 31.3636 100.661 31.2178 101.055 31.1193C101.453 31.017 101.864 30.9432 102.288 30.8977C102.8 30.8447 103.214 30.7973 103.533 30.7557C103.851 30.7102 104.082 30.642 104.226 30.5511C104.374 30.4564 104.447 30.3106 104.447 30.1136V30.0795C104.447 29.6515 104.321 29.3201 104.067 29.0852C103.813 28.8504 103.447 28.733 102.97 28.733C102.466 28.733 102.067 28.8428 101.771 29.0625C101.48 29.2822 101.283 29.5417 101.18 29.8409L99.2599 29.5682C99.4115 29.0379 99.6615 28.5947 100.01 28.2386C100.358 27.8788 100.785 27.6098 101.288 27.4318C101.792 27.25 102.349 27.1591 102.959 27.1591C103.379 27.1591 103.798 27.2083 104.214 27.3068C104.631 27.4053 105.012 27.5682 105.357 27.7955C105.701 28.0189 105.978 28.3239 106.186 28.7102C106.398 29.0966 106.504 29.5795 106.504 30.1591V36H104.527V34.8011H104.459C104.334 35.0436 104.158 35.2708 103.93 35.483C103.707 35.6913 103.425 35.8598 103.084 35.9886C102.747 36.1136 102.351 36.1761 101.896 36.1761ZM102.43 34.6648C102.843 34.6648 103.201 34.5833 103.504 34.4205C103.807 34.2538 104.04 34.0341 104.203 33.7614C104.37 33.4886 104.453 33.1913 104.453 32.8693V31.8409C104.389 31.8939 104.279 31.9432 104.124 31.9886C103.972 32.0341 103.802 32.0739 103.612 32.108C103.423 32.142 103.235 32.1723 103.05 32.1989C102.864 32.2254 102.703 32.2481 102.567 32.267C102.26 32.3087 101.985 32.3769 101.743 32.4716C101.5 32.5663 101.309 32.6989 101.169 32.8693C101.029 33.036 100.959 33.2519 100.959 33.517C100.959 33.8958 101.097 34.1818 101.374 34.375C101.65 34.5682 102.002 34.6648 102.43 34.6648ZM112.93 27.2727V28.8636H107.913V27.2727H112.93ZM109.152 25.1818H111.209V33.375C111.209 33.6515 111.25 33.8636 111.334 34.0114C111.421 34.1553 111.535 34.2538 111.675 34.3068C111.815 34.3598 111.97 34.3864 112.141 34.3864C112.269 34.3864 112.387 34.3769 112.493 34.358C112.603 34.339 112.686 34.322 112.743 34.3068L113.089 35.9148C112.98 35.9527 112.822 35.9943 112.618 36.0398C112.417 36.0852 112.171 36.1117 111.879 36.1193C111.364 36.1345 110.9 36.0568 110.487 35.8864C110.074 35.7121 109.747 35.4432 109.504 35.0795C109.266 34.7159 109.148 34.2614 109.152 33.7159V25.1818ZM114.651 36V27.2727H116.707V36H114.651ZM115.685 26.0341C115.359 26.0341 115.079 25.9261 114.844 25.7102C114.609 25.4905 114.491 25.2273 114.491 24.9205C114.491 24.6098 114.609 24.3466 114.844 24.1307C115.079 23.911 115.359 23.8011 115.685 23.8011C116.014 23.8011 116.295 23.911 116.526 24.1307C116.76 24.3466 116.878 24.6098 116.878 24.9205C116.878 25.2273 116.76 25.4905 116.526 25.7102C116.295 25.9261 116.014 26.0341 115.685 26.0341ZM122.629 36.1705C121.777 36.1705 121.038 35.983 120.413 35.608C119.788 35.233 119.304 34.7083 118.959 34.0341C118.618 33.3598 118.447 32.572 118.447 31.6705C118.447 30.7689 118.618 29.9792 118.959 29.3011C119.304 28.6231 119.788 28.0966 120.413 27.7216C121.038 27.3466 121.777 27.1591 122.629 27.1591C123.482 27.1591 124.22 27.3466 124.845 27.7216C125.47 28.0966 125.953 28.6231 126.294 29.3011C126.639 29.9792 126.811 30.7689 126.811 31.6705C126.811 32.572 126.639 33.3598 126.294 34.0341C125.953 34.7083 125.47 35.233 124.845 35.608C124.22 35.983 123.482 36.1705 122.629 36.1705ZM122.641 34.5227C123.103 34.5227 123.489 34.3958 123.8 34.142C124.11 33.8845 124.341 33.5398 124.493 33.108C124.648 32.6761 124.726 32.1951 124.726 31.6648C124.726 31.1307 124.648 30.6477 124.493 30.2159C124.341 29.7803 124.11 29.4337 123.8 29.1761C123.489 28.9186 123.103 28.7898 122.641 28.7898C122.167 28.7898 121.773 28.9186 121.459 29.1761C121.148 29.4337 120.915 29.7803 120.76 30.2159C120.608 30.6477 120.533 31.1307 120.533 31.6648C120.533 32.1951 120.608 32.6761 120.76 33.108C120.915 33.5398 121.148 33.8845 121.459 34.142C121.773 34.3958 122.167 34.5227 122.641 34.5227ZM130.614 30.8864V36H128.557V27.2727H130.523V28.7557H130.625C130.826 28.267 131.146 27.8788 131.585 27.5909C132.028 27.303 132.576 27.1591 133.227 27.1591C133.83 27.1591 134.354 27.2879 134.801 27.5455C135.252 27.803 135.6 28.1761 135.847 28.6648C136.097 29.1534 136.22 29.7462 136.216 30.4432V36H134.159V30.7614C134.159 30.178 134.008 29.7216 133.705 29.392C133.405 29.0625 132.991 28.8977 132.46 28.8977C132.1 28.8977 131.78 28.9773 131.5 29.1364C131.223 29.2917 131.006 29.517 130.847 29.8125C130.691 30.108 130.614 30.4659 130.614 30.8864ZM146.696 27.2727V28.8636H141.537V27.2727H146.696ZM142.827 36V26.4489C142.827 25.8617 142.948 25.3731 143.19 24.983C143.437 24.5928 143.766 24.3011 144.179 24.108C144.592 23.9148 145.05 23.8182 145.554 23.8182C145.91 23.8182 146.226 23.8466 146.503 23.9034C146.779 23.9602 146.984 24.0114 147.116 24.0568L146.707 25.6477C146.62 25.6212 146.51 25.5947 146.378 25.5682C146.245 25.5379 146.098 25.5227 145.935 25.5227C145.552 25.5227 145.281 25.6155 145.122 25.8011C144.967 25.983 144.889 26.2443 144.889 26.5852V36H142.827ZM150.364 24.3636V36H148.307V24.3636H150.364ZM154.99 36.1761C154.437 36.1761 153.939 36.0777 153.496 35.8807C153.056 35.6799 152.708 35.3845 152.45 34.9943C152.196 34.6042 152.07 34.1231 152.07 33.5511C152.07 33.0587 152.161 32.6515 152.342 32.3295C152.524 32.0076 152.772 31.75 153.087 31.5568C153.401 31.3636 153.755 31.2178 154.149 31.1193C154.547 31.017 154.958 30.9432 155.382 30.8977C155.893 30.8447 156.308 30.7973 156.626 30.7557C156.945 30.7102 157.176 30.642 157.32 30.5511C157.467 30.4564 157.541 30.3106 157.541 30.1136V30.0795C157.541 29.6515 157.414 29.3201 157.161 29.0852C156.907 28.8504 156.541 28.733 156.064 28.733C155.56 28.733 155.161 28.8428 154.865 29.0625C154.573 29.2822 154.376 29.5417 154.274 29.8409L152.354 29.5682C152.505 29.0379 152.755 28.5947 153.104 28.2386C153.452 27.8788 153.878 27.6098 154.382 27.4318C154.886 27.25 155.443 27.1591 156.053 27.1591C156.473 27.1591 156.892 27.2083 157.308 27.3068C157.725 27.4053 158.106 27.5682 158.45 27.7955C158.795 28.0189 159.071 28.3239 159.28 28.7102C159.492 29.0966 159.598 29.5795 159.598 30.1591V36H157.621V34.8011H157.553C157.428 35.0436 157.251 35.2708 157.024 35.483C156.801 35.6913 156.518 35.8598 156.178 35.9886C155.84 36.1136 155.445 36.1761 154.99 36.1761ZM155.524 34.6648C155.937 34.6648 156.295 34.5833 156.598 34.4205C156.901 34.2538 157.134 34.0341 157.297 33.7614C157.464 33.4886 157.547 33.1913 157.547 32.8693V31.8409C157.482 31.8939 157.373 31.9432 157.217 31.9886C157.066 32.0341 156.895 32.0739 156.706 32.108C156.517 32.142 156.329 32.1723 156.143 32.1989C155.958 32.2254 155.797 32.2481 155.661 32.267C155.354 32.3087 155.079 32.3769 154.837 32.4716C154.594 32.5663 154.403 32.6989 154.263 32.8693C154.123 33.036 154.053 33.2519 154.053 33.517C154.053 33.8958 154.191 34.1818 154.467 34.375C154.744 34.5682 155.096 34.6648 155.524 34.6648ZM168.564 29.5795L166.689 29.7841C166.636 29.5947 166.543 29.4167 166.411 29.25C166.282 29.0833 166.107 28.9489 165.888 28.8466C165.668 28.7443 165.399 28.6932 165.081 28.6932C164.653 28.6932 164.293 28.786 164.001 28.9716C163.714 29.1572 163.571 29.3977 163.575 29.6932C163.571 29.947 163.664 30.1534 163.854 30.3125C164.047 30.4716 164.365 30.6023 164.808 30.7045L166.297 31.0227C167.123 31.2008 167.736 31.483 168.138 31.8693C168.543 32.2557 168.748 32.7614 168.751 33.3864C168.748 33.9356 168.587 34.4205 168.268 34.8409C167.954 35.2576 167.517 35.5833 166.956 35.8182C166.395 36.053 165.751 36.1705 165.024 36.1705C163.956 36.1705 163.096 35.947 162.445 35.5C161.793 35.0492 161.405 34.4223 161.28 33.6193L163.286 33.4261C163.376 33.8201 163.57 34.1174 163.865 34.3182C164.161 34.5189 164.545 34.6193 165.018 34.6193C165.507 34.6193 165.899 34.5189 166.195 34.3182C166.494 34.1174 166.643 33.8693 166.643 33.5739C166.643 33.3239 166.547 33.1174 166.354 32.9545C166.164 32.7917 165.869 32.6667 165.467 32.5795L163.979 32.267C163.142 32.0928 162.522 31.7992 162.121 31.3864C161.719 30.9697 161.52 30.4432 161.524 29.8068C161.52 29.2689 161.666 28.803 161.962 28.4091C162.261 28.0114 162.676 27.7045 163.206 27.4886C163.74 27.2689 164.356 27.1591 165.053 27.1591C166.075 27.1591 166.88 27.3769 167.467 27.8125C168.058 28.2481 168.424 28.8371 168.564 29.5795ZM172.504 30.8864V36H170.447V24.3636H172.459V28.7557H172.561C172.766 28.2633 173.082 27.875 173.51 27.5909C173.942 27.303 174.491 27.1591 175.158 27.1591C175.764 27.1591 176.292 27.286 176.743 27.5398C177.194 27.7936 177.542 28.1648 177.788 28.6534C178.038 29.142 178.163 29.7386 178.163 30.4432V36H176.107V30.7614C176.107 30.1742 175.955 29.7178 175.652 29.392C175.353 29.0625 174.932 28.8977 174.391 28.8977C174.027 28.8977 173.701 28.9773 173.413 29.1364C173.129 29.2917 172.906 29.517 172.743 29.8125C172.584 30.108 172.504 30.4659 172.504 30.8864ZM184.067 36.1705C183.196 36.1705 182.447 35.9792 181.822 35.5966C181.201 35.214 180.722 34.6856 180.385 34.0114C180.052 33.3333 179.885 32.553 179.885 31.6705C179.885 30.7841 180.055 30.0019 180.396 29.3239C180.737 28.642 181.218 28.1117 181.839 27.733C182.464 27.3504 183.203 27.1591 184.055 27.1591C184.764 27.1591 185.391 27.2898 185.936 27.5511C186.485 27.8087 186.923 28.1742 187.249 28.6477C187.574 29.1174 187.76 29.6667 187.805 30.2955H185.839C185.76 29.875 185.571 29.5246 185.271 29.2443C184.976 28.9602 184.58 28.8182 184.084 28.8182C183.663 28.8182 183.294 28.9318 182.976 29.1591C182.658 29.3826 182.41 29.7045 182.232 30.125C182.057 30.5455 181.97 31.0492 181.97 31.6364C181.97 32.2311 182.057 32.7424 182.232 33.1705C182.406 33.5947 182.65 33.9223 182.964 34.1534C183.283 34.3807 183.656 34.4943 184.084 34.4943C184.387 34.4943 184.658 34.4375 184.896 34.3239C185.139 34.2064 185.341 34.0379 185.504 33.8182C185.667 33.5985 185.779 33.3314 185.839 33.017H187.805C187.756 33.6345 187.574 34.1818 187.26 34.6591C186.946 35.1326 186.518 35.5038 185.976 35.7727C185.434 36.0379 184.798 36.1705 184.067 36.1705ZM192.006 36.1761C191.453 36.1761 190.955 36.0777 190.511 35.8807C190.072 35.6799 189.723 35.3845 189.466 34.9943C189.212 34.6042 189.085 34.1231 189.085 33.5511C189.085 33.0587 189.176 32.6515 189.358 32.3295C189.54 32.0076 189.788 31.75 190.102 31.5568C190.417 31.3636 190.771 31.2178 191.165 31.1193C191.563 31.017 191.973 30.9432 192.398 30.8977C192.909 30.8447 193.324 30.7973 193.642 30.7557C193.96 30.7102 194.191 30.642 194.335 30.5511C194.483 30.4564 194.557 30.3106 194.557 30.1136V30.0795C194.557 29.6515 194.43 29.3201 194.176 29.0852C193.922 28.8504 193.557 28.733 193.08 28.733C192.576 28.733 192.176 28.8428 191.881 29.0625C191.589 29.2822 191.392 29.5417 191.29 29.8409L189.369 29.5682C189.521 29.0379 189.771 28.5947 190.119 28.2386C190.468 27.8788 190.894 27.6098 191.398 27.4318C191.902 27.25 192.458 27.1591 193.068 27.1591C193.489 27.1591 193.907 27.2083 194.324 27.3068C194.741 27.4053 195.121 27.5682 195.466 27.7955C195.811 28.0189 196.087 28.3239 196.295 28.7102C196.508 29.0966 196.614 29.5795 196.614 30.1591V36H194.636V34.8011H194.568C194.443 35.0436 194.267 35.2708 194.04 35.483C193.816 35.6913 193.534 35.8598 193.193 35.9886C192.856 36.1136 192.46 36.1761 192.006 36.1761ZM192.54 34.6648C192.953 34.6648 193.311 34.5833 193.614 34.4205C193.917 34.2538 194.15 34.0341 194.312 33.7614C194.479 33.4886 194.562 33.1913 194.562 32.8693V31.8409C194.498 31.8939 194.388 31.9432 194.233 31.9886C194.081 32.0341 193.911 32.0739 193.722 32.108C193.532 32.142 193.345 32.1723 193.159 32.1989C192.973 32.2254 192.813 32.2481 192.676 32.267C192.369 32.3087 192.095 32.3769 191.852 32.4716C191.61 32.5663 191.419 32.6989 191.278 32.8693C191.138 33.036 191.068 33.2519 191.068 33.517C191.068 33.8958 191.206 34.1818 191.483 34.375C191.759 34.5682 192.112 34.6648 192.54 34.6648ZM198.682 36V27.2727H200.676V28.7273H200.767C200.926 28.2235 201.199 27.8352 201.585 27.5625C201.975 27.286 202.42 27.1477 202.92 27.1477C203.034 27.1477 203.161 27.1534 203.301 27.1648C203.445 27.1723 203.564 27.1856 203.659 27.2045V29.0966C203.572 29.0663 203.434 29.0398 203.244 29.017C203.059 28.9905 202.879 28.9773 202.705 28.9773C202.33 28.9773 201.992 29.0587 201.693 29.2216C201.398 29.3807 201.165 29.6023 200.994 29.8864C200.824 30.1705 200.739 30.4981 200.739 30.8693V36H198.682ZM207.905 36.1534C207.219 36.1534 206.606 35.9773 206.064 35.625C205.522 35.2727 205.094 34.7614 204.78 34.0909C204.465 33.4205 204.308 32.6061 204.308 31.6477C204.308 30.678 204.467 29.8598 204.786 29.1932C205.107 28.5227 205.541 28.017 206.087 27.6761C206.632 27.3314 207.24 27.1591 207.911 27.1591C208.422 27.1591 208.842 27.2462 209.172 27.4205C209.501 27.5909 209.763 27.7973 209.956 28.0398C210.149 28.2784 210.299 28.5038 210.405 28.7159H210.49V24.3636H212.553V36H210.53V34.625H210.405C210.299 34.8371 210.145 35.0625 209.945 35.3011C209.744 35.536 209.479 35.7367 209.149 35.9034C208.82 36.0701 208.405 36.1534 207.905 36.1534ZM208.479 34.4659C208.914 34.4659 209.286 34.3485 209.592 34.1136C209.899 33.875 210.132 33.5436 210.291 33.1193C210.45 32.6951 210.53 32.2008 210.53 31.6364C210.53 31.072 210.45 30.5814 210.291 30.1648C210.136 29.7481 209.905 29.4242 209.598 29.1932C209.295 28.9621 208.922 28.8466 208.479 28.8466C208.02 28.8466 207.638 28.9659 207.331 29.2045C207.024 29.4432 206.793 29.7727 206.638 30.1932C206.482 30.6136 206.405 31.0947 206.405 31.6364C206.405 32.1818 206.482 32.6686 206.638 33.0966C206.797 33.5208 207.03 33.8561 207.337 34.1023C207.647 34.3447 208.028 34.4659 208.479 34.4659ZM221.642 29.5795L219.767 29.7841C219.714 29.5947 219.621 29.4167 219.489 29.25C219.36 29.0833 219.186 28.9489 218.966 28.8466C218.746 28.7443 218.477 28.6932 218.159 28.6932C217.731 28.6932 217.371 28.786 217.08 28.9716C216.792 29.1572 216.65 29.3977 216.653 29.6932C216.65 29.947 216.742 30.1534 216.932 30.3125C217.125 30.4716 217.443 30.6023 217.886 30.7045L219.375 31.0227C220.201 31.2008 220.814 31.483 221.216 31.8693C221.621 32.2557 221.826 32.7614 221.83 33.3864C221.826 33.9356 221.665 34.4205 221.347 34.8409C221.032 35.2576 220.595 35.5833 220.034 35.8182C219.473 36.053 218.83 36.1705 218.102 36.1705C217.034 36.1705 216.174 35.947 215.523 35.5C214.871 35.0492 214.483 34.4223 214.358 33.6193L216.364 33.4261C216.455 33.8201 216.648 34.1174 216.943 34.3182C217.239 34.5189 217.623 34.6193 218.097 34.6193C218.585 34.6193 218.977 34.5189 219.273 34.3182C219.572 34.1174 219.722 33.8693 219.722 33.5739C219.722 33.3239 219.625 33.1174 219.432 32.9545C219.242 32.7917 218.947 32.6667 218.545 32.5795L217.057 32.267C216.22 32.0928 215.6 31.7992 215.199 31.3864C214.797 30.9697 214.598 30.4432 214.602 29.8068C214.598 29.2689 214.744 28.803 215.04 28.4091C215.339 28.0114 215.754 27.7045 216.284 27.4886C216.818 27.2689 217.434 27.1591 218.131 27.1591C219.153 27.1591 219.958 27.3769 220.545 27.8125C221.136 28.2481 221.502 28.8371 221.642 29.5795ZM227.585 36V24.3636H229.642V28.7159H229.727C229.833 28.5038 229.983 28.2784 230.176 28.0398C230.369 27.7973 230.631 27.5909 230.96 27.4205C231.29 27.2462 231.71 27.1591 232.222 27.1591C232.896 27.1591 233.504 27.3314 234.045 27.6761C234.591 28.017 235.023 28.5227 235.341 29.1932C235.663 29.8598 235.824 30.678 235.824 31.6477C235.824 32.6061 235.667 33.4205 235.352 34.0909C235.038 34.7614 234.61 35.2727 234.068 35.625C233.527 35.9773 232.913 36.1534 232.227 36.1534C231.727 36.1534 231.313 36.0701 230.983 35.9034C230.653 35.7367 230.388 35.536 230.188 35.3011C229.991 35.0625 229.837 34.8371 229.727 34.625H229.608V36H227.585ZM229.602 31.6364C229.602 32.2008 229.682 32.6951 229.841 33.1193C230.004 33.5436 230.237 33.875 230.54 34.1136C230.847 34.3485 231.218 34.4659 231.653 34.4659C232.108 34.4659 232.489 34.3447 232.795 34.1023C233.102 33.8561 233.333 33.5208 233.489 33.0966C233.648 32.6686 233.727 32.1818 233.727 31.6364C233.727 31.0947 233.65 30.6136 233.494 30.1932C233.339 29.7727 233.108 29.4432 232.801 29.2045C232.494 28.9659 232.112 28.8466 231.653 28.8466C231.214 28.8466 230.841 28.9621 230.534 29.1932C230.227 29.4242 229.994 29.7481 229.835 30.1648C229.68 30.5814 229.602 31.072 229.602 31.6364ZM241.436 36.1705C240.561 36.1705 239.805 35.9886 239.169 35.625C238.536 35.2576 238.05 34.7386 237.709 34.0682C237.368 33.3939 237.197 32.6004 237.197 31.6875C237.197 30.7898 237.368 30.0019 237.709 29.3239C238.054 28.642 238.535 28.1117 239.152 27.733C239.769 27.3504 240.495 27.1591 241.328 27.1591C241.866 27.1591 242.374 27.2462 242.851 27.4205C243.332 27.5909 243.756 27.8561 244.124 28.2159C244.495 28.5758 244.786 29.0341 244.999 29.5909C245.211 30.1439 245.317 30.803 245.317 31.5682V32.1989H238.163V30.8125H243.345C243.341 30.4186 243.256 30.0682 243.089 29.7614C242.923 29.4508 242.69 29.2064 242.391 29.0284C242.095 28.8504 241.75 28.7614 241.357 28.7614C240.936 28.7614 240.567 28.8636 240.249 29.0682C239.93 29.2689 239.682 29.5341 239.504 29.8636C239.33 30.1894 239.241 30.5473 239.237 30.9375V32.1477C239.237 32.6553 239.33 33.0909 239.516 33.4545C239.701 33.8144 239.961 34.0909 240.294 34.2841C240.627 34.4735 241.018 34.5682 241.464 34.5682C241.764 34.5682 242.035 34.5265 242.277 34.4432C242.519 34.3561 242.73 34.2292 242.908 34.0625C243.086 33.8958 243.22 33.6894 243.311 33.4432L245.232 33.6591C245.11 34.1667 244.879 34.6098 244.538 34.9886C244.201 35.3636 243.769 35.6553 243.243 35.8636C242.716 36.0682 242.114 36.1705 241.436 36.1705ZM256.588 32.3295V27.2727H258.645V36H256.651V34.4489H256.56C256.363 34.9375 256.039 35.3371 255.588 35.6477C255.141 35.9583 254.59 36.1136 253.935 36.1136C253.363 36.1136 252.857 35.9867 252.418 35.733C251.982 35.4754 251.641 35.1023 251.395 34.6136C251.149 34.1212 251.026 33.5265 251.026 32.8295V27.2727H253.082V32.5114C253.082 33.0644 253.234 33.5038 253.537 33.8295C253.84 34.1553 254.238 34.3182 254.73 34.3182C255.033 34.3182 255.327 34.2443 255.611 34.0966C255.895 33.9489 256.128 33.7292 256.31 33.4375C256.495 33.142 256.588 32.7727 256.588 32.3295ZM267.658 29.5795L265.783 29.7841C265.73 29.5947 265.637 29.4167 265.504 29.25C265.375 29.0833 265.201 28.9489 264.982 28.8466C264.762 28.7443 264.493 28.6932 264.175 28.6932C263.747 28.6932 263.387 28.786 263.095 28.9716C262.807 29.1572 262.665 29.3977 262.669 29.6932C262.665 29.947 262.758 30.1534 262.947 30.3125C263.141 30.4716 263.459 30.6023 263.902 30.7045L265.391 31.0227C266.216 31.2008 266.83 31.483 267.232 31.8693C267.637 32.2557 267.841 32.7614 267.845 33.3864C267.841 33.9356 267.68 34.4205 267.362 34.8409C267.048 35.2576 266.61 35.5833 266.05 35.8182C265.489 36.053 264.845 36.1705 264.118 36.1705C263.05 36.1705 262.19 35.947 261.538 35.5C260.887 35.0492 260.499 34.4223 260.374 33.6193L262.379 33.4261C262.47 33.8201 262.663 34.1174 262.959 34.3182C263.254 34.5189 263.639 34.6193 264.112 34.6193C264.601 34.6193 264.993 34.5189 265.288 34.3182C265.588 34.1174 265.737 33.8693 265.737 33.5739C265.737 33.3239 265.641 33.1174 265.447 32.9545C265.258 32.7917 264.963 32.6667 264.561 32.5795L263.072 32.267C262.235 32.0928 261.616 31.7992 261.214 31.3864C260.813 30.9697 260.614 30.4432 260.618 29.8068C260.614 29.2689 260.76 28.803 261.055 28.4091C261.355 28.0114 261.769 27.7045 262.3 27.4886C262.834 27.2689 263.449 27.1591 264.146 27.1591C265.169 27.1591 265.974 27.3769 266.561 27.8125C267.152 28.2481 267.518 28.8371 267.658 29.5795ZM273.405 36.1705C272.53 36.1705 271.774 35.9886 271.138 35.625C270.505 35.2576 270.018 34.7386 269.678 34.0682C269.337 33.3939 269.166 32.6004 269.166 31.6875C269.166 30.7898 269.337 30.0019 269.678 29.3239C270.022 28.642 270.503 28.1117 271.121 27.733C271.738 27.3504 272.464 27.1591 273.297 27.1591C273.835 27.1591 274.342 27.2462 274.82 27.4205C275.301 27.5909 275.725 27.8561 276.092 28.2159C276.464 28.5758 276.755 29.0341 276.967 29.5909C277.179 30.1439 277.286 30.803 277.286 31.5682V32.1989H270.132V30.8125H275.314C275.31 30.4186 275.225 30.0682 275.058 29.7614C274.892 29.4508 274.659 29.2064 274.359 29.0284C274.064 28.8504 273.719 28.7614 273.325 28.7614C272.905 28.7614 272.536 28.8636 272.217 29.0682C271.899 29.2689 271.651 29.5341 271.473 29.8636C271.299 30.1894 271.21 30.5473 271.206 30.9375V32.1477C271.206 32.6553 271.299 33.0909 271.484 33.4545C271.67 33.8144 271.929 34.0909 272.263 34.2841C272.596 34.4735 272.986 34.5682 273.433 34.5682C273.732 34.5682 274.003 34.5265 274.246 34.4432C274.488 34.3561 274.698 34.2292 274.876 34.0625C275.054 33.8958 275.189 33.6894 275.28 33.4432L277.2 33.6591C277.079 34.1667 276.848 34.6098 276.507 34.9886C276.17 35.3636 275.738 35.6553 275.212 35.8636C274.685 36.0682 274.083 36.1705 273.405 36.1705ZM282.264 36.1534C281.579 36.1534 280.965 35.9773 280.423 35.625C279.882 35.2727 279.454 34.7614 279.139 34.0909C278.825 33.4205 278.668 32.6061 278.668 31.6477C278.668 30.678 278.827 29.8598 279.145 29.1932C279.467 28.5227 279.901 28.017 280.446 27.6761C280.991 27.3314 281.599 27.1591 282.27 27.1591C282.781 27.1591 283.202 27.2462 283.531 27.4205C283.861 27.5909 284.122 27.7973 284.315 28.0398C284.509 28.2784 284.658 28.5038 284.764 28.7159H284.849V24.3636H286.912V36H284.889V34.625H284.764C284.658 34.8371 284.505 35.0625 284.304 35.3011C284.103 35.536 283.838 35.7367 283.509 35.9034C283.179 36.0701 282.764 36.1534 282.264 36.1534ZM282.838 34.4659C283.274 34.4659 283.645 34.3485 283.952 34.1136C284.259 33.875 284.491 33.5436 284.651 33.1193C284.81 32.6951 284.889 32.2008 284.889 31.6364C284.889 31.072 284.81 30.5814 284.651 30.1648C284.495 29.7481 284.264 29.4242 283.957 29.1932C283.654 28.9621 283.281 28.8466 282.838 28.8466C282.38 28.8466 281.997 28.9659 281.69 29.2045C281.384 29.4432 281.152 29.7727 280.997 30.1932C280.842 30.6136 280.764 31.0947 280.764 31.6364C280.764 32.1818 280.842 32.6686 280.997 33.0966C281.156 33.5208 281.389 33.8561 281.696 34.1023C282.007 34.3447 282.387 34.4659 282.838 34.4659ZM297.493 27.2727V28.8636H292.334V27.2727H297.493ZM293.624 36V26.4489C293.624 25.8617 293.745 25.3731 293.987 24.983C294.233 24.5928 294.563 24.3011 294.976 24.108C295.389 23.9148 295.847 23.8182 296.351 23.8182C296.707 23.8182 297.023 23.8466 297.3 23.9034C297.576 23.9602 297.781 24.0114 297.913 24.0568L297.504 25.6477C297.417 25.6212 297.307 25.5947 297.175 25.5682C297.042 25.5379 296.894 25.5227 296.732 25.5227C296.349 25.5227 296.078 25.6155 295.919 25.8011C295.764 25.983 295.686 26.2443 295.686 26.5852V36H293.624ZM302.582 36.1705C301.73 36.1705 300.991 35.983 300.366 35.608C299.741 35.233 299.257 34.7083 298.912 34.0341C298.571 33.3598 298.401 32.572 298.401 31.6705C298.401 30.7689 298.571 29.9792 298.912 29.3011C299.257 28.6231 299.741 28.0966 300.366 27.7216C300.991 27.3466 301.73 27.1591 302.582 27.1591C303.435 27.1591 304.173 27.3466 304.798 27.7216C305.423 28.0966 305.906 28.6231 306.247 29.3011C306.592 29.9792 306.764 30.7689 306.764 31.6705C306.764 32.572 306.592 33.3598 306.247 34.0341C305.906 34.7083 305.423 35.233 304.798 35.608C304.173 35.983 303.435 36.1705 302.582 36.1705ZM302.594 34.5227C303.056 34.5227 303.442 34.3958 303.753 34.142C304.063 33.8845 304.295 33.5398 304.446 33.108C304.601 32.6761 304.679 32.1951 304.679 31.6648C304.679 31.1307 304.601 30.6477 304.446 30.2159C304.295 29.7803 304.063 29.4337 303.753 29.1761C303.442 28.9186 303.056 28.7898 302.594 28.7898C302.12 28.7898 301.726 28.9186 301.412 29.1761C301.101 29.4337 300.868 29.7803 300.713 30.2159C300.562 30.6477 300.486 31.1307 300.486 31.6648C300.486 32.1951 300.562 32.6761 300.713 33.108C300.868 33.5398 301.101 33.8845 301.412 34.142C301.726 34.3958 302.12 34.5227 302.594 34.5227ZM308.51 36V27.2727H310.504V28.7273H310.595C310.754 28.2235 311.027 27.8352 311.413 27.5625C311.804 27.286 312.249 27.1477 312.749 27.1477C312.862 27.1477 312.989 27.1534 313.129 27.1648C313.273 27.1723 313.393 27.1856 313.487 27.2045V29.0966C313.4 29.0663 313.262 29.0398 313.072 29.017C312.887 28.9905 312.707 28.9773 312.533 28.9773C312.158 28.9773 311.821 29.0587 311.521 29.2216C311.226 29.3807 310.993 29.6023 310.822 29.8864C310.652 30.1705 310.567 30.4981 310.567 30.8693V36H308.51ZM321.334 36.1761C320.781 36.1761 320.283 36.0777 319.839 35.8807C319.4 35.6799 319.052 35.3845 318.794 34.9943C318.54 34.6042 318.413 34.1231 318.413 33.5511C318.413 33.0587 318.504 32.6515 318.686 32.3295C318.868 32.0076 319.116 31.75 319.43 31.5568C319.745 31.3636 320.099 31.2178 320.493 31.1193C320.891 31.017 321.302 30.9432 321.726 30.8977C322.237 30.8447 322.652 30.7973 322.97 30.7557C323.288 30.7102 323.519 30.642 323.663 30.5511C323.811 30.4564 323.885 30.3106 323.885 30.1136V30.0795C323.885 29.6515 323.758 29.3201 323.504 29.0852C323.25 28.8504 322.885 28.733 322.408 28.733C321.904 28.733 321.504 28.8428 321.209 29.0625C320.917 29.2822 320.72 29.5417 320.618 29.8409L318.697 29.5682C318.849 29.0379 319.099 28.5947 319.447 28.2386C319.796 27.8788 320.222 27.6098 320.726 27.4318C321.23 27.25 321.786 27.1591 322.396 27.1591C322.817 27.1591 323.235 27.2083 323.652 27.3068C324.069 27.4053 324.449 27.5682 324.794 27.7955C325.139 28.0189 325.415 28.3239 325.624 28.7102C325.836 29.0966 325.942 29.5795 325.942 30.1591V36H323.964V34.8011H323.896C323.771 35.0436 323.595 35.2708 323.368 35.483C323.144 35.6913 322.862 35.8598 322.521 35.9886C322.184 36.1136 321.788 36.1761 321.334 36.1761ZM321.868 34.6648C322.281 34.6648 322.639 34.5833 322.942 34.4205C323.245 34.2538 323.478 34.0341 323.641 33.7614C323.807 33.4886 323.891 33.1913 323.891 32.8693V31.8409C323.826 31.8939 323.716 31.9432 323.561 31.9886C323.41 32.0341 323.239 32.0739 323.05 32.108C322.86 32.142 322.673 32.1723 322.487 32.1989C322.302 32.2254 322.141 32.2481 322.004 32.267C321.697 32.3087 321.423 32.3769 321.18 32.4716C320.938 32.5663 320.747 32.6989 320.607 32.8693C320.466 33.036 320.396 33.2519 320.396 33.517C320.396 33.8958 320.535 34.1818 320.811 34.375C321.088 34.5682 321.44 34.6648 321.868 34.6648ZM330.067 24.3636V36H328.01V24.3636H330.067ZM334.239 24.3636V36H332.182V24.3636H334.239ZM342.834 36.1761C342.281 36.1761 341.783 36.0777 341.339 35.8807C340.9 35.6799 340.552 35.3845 340.294 34.9943C340.04 34.6042 339.913 34.1231 339.913 33.5511C339.913 33.0587 340.004 32.6515 340.186 32.3295C340.368 32.0076 340.616 31.75 340.93 31.5568C341.245 31.3636 341.599 31.2178 341.993 31.1193C342.391 31.017 342.802 30.9432 343.226 30.8977C343.737 30.8447 344.152 30.7973 344.47 30.7557C344.788 30.7102 345.019 30.642 345.163 30.5511C345.311 30.4564 345.385 30.3106 345.385 30.1136V30.0795C345.385 29.6515 345.258 29.3201 345.004 29.0852C344.75 28.8504 344.385 28.733 343.908 28.733C343.404 28.733 343.004 28.8428 342.709 29.0625C342.417 29.2822 342.22 29.5417 342.118 29.8409L340.197 29.5682C340.349 29.0379 340.599 28.5947 340.947 28.2386C341.296 27.8788 341.722 27.6098 342.226 27.4318C342.73 27.25 343.286 27.1591 343.896 27.1591C344.317 27.1591 344.735 27.2083 345.152 27.3068C345.569 27.4053 345.949 27.5682 346.294 27.7955C346.639 28.0189 346.915 28.3239 347.124 28.7102C347.336 29.0966 347.442 29.5795 347.442 30.1591V36H345.464V34.8011H345.396C345.271 35.0436 345.095 35.2708 344.868 35.483C344.644 35.6913 344.362 35.8598 344.021 35.9886C343.684 36.1136 343.288 36.1761 342.834 36.1761ZM343.368 34.6648C343.781 34.6648 344.139 34.5833 344.442 34.4205C344.745 34.2538 344.978 34.0341 345.141 33.7614C345.307 33.4886 345.391 33.1913 345.391 32.8693V31.8409C345.326 31.8939 345.216 31.9432 345.061 31.9886C344.91 32.0341 344.739 32.0739 344.55 32.108C344.36 32.142 344.173 32.1723 343.987 32.1989C343.802 32.2254 343.641 32.2481 343.504 32.267C343.197 32.3087 342.923 32.3769 342.68 32.4716C342.438 32.5663 342.247 32.6989 342.107 32.8693C341.966 33.036 341.896 33.2519 341.896 33.517C341.896 33.8958 342.035 34.1818 342.311 34.375C342.588 34.5682 342.94 34.6648 343.368 34.6648ZM353.305 39.4545C352.567 39.4545 351.932 39.3542 351.402 39.1534C350.872 38.9564 350.446 38.6913 350.124 38.358C349.802 38.0246 349.578 37.6553 349.453 37.25L351.305 36.8011C351.389 36.9716 351.51 37.1402 351.669 37.3068C351.828 37.4773 352.042 37.6174 352.311 37.7273C352.584 37.8409 352.927 37.8977 353.339 37.8977C353.923 37.8977 354.406 37.7557 354.788 37.4716C355.171 37.1913 355.362 36.7292 355.362 36.0852V34.4318H355.26C355.154 34.6439 354.999 34.8617 354.794 35.0852C354.593 35.3087 354.326 35.4962 353.993 35.6477C353.663 35.7992 353.249 35.875 352.749 35.875C352.078 35.875 351.47 35.7178 350.925 35.4034C350.383 35.0852 349.951 34.6117 349.629 33.983C349.311 33.3504 349.152 32.5587 349.152 31.608C349.152 30.6496 349.311 29.8409 349.629 29.1818C349.951 28.5189 350.385 28.017 350.93 27.6761C351.476 27.3314 352.084 27.1591 352.754 27.1591C353.266 27.1591 353.686 27.2462 354.016 27.4205C354.349 27.5909 354.614 27.7973 354.811 28.0398C355.008 28.2784 355.158 28.5038 355.26 28.7159H355.374V27.2727H357.402V36.142C357.402 36.8883 357.224 37.5057 356.868 37.9943C356.512 38.483 356.025 38.8485 355.408 39.0909C354.79 39.3333 354.089 39.4545 353.305 39.4545ZM353.322 34.2614C353.758 34.2614 354.129 34.1553 354.436 33.9432C354.743 33.7311 354.976 33.4261 355.135 33.0284C355.294 32.6307 355.374 32.1534 355.374 31.5966C355.374 31.0473 355.294 30.5663 355.135 30.1534C354.98 29.7405 354.749 29.4205 354.442 29.1932C354.139 28.9621 353.766 28.8466 353.322 28.8466C352.864 28.8466 352.482 28.9659 352.175 29.2045C351.868 29.4432 351.637 29.7708 351.482 30.1875C351.326 30.6004 351.249 31.0701 351.249 31.5966C351.249 32.1307 351.326 32.5985 351.482 33C351.641 33.3977 351.874 33.7083 352.18 33.9318C352.491 34.1515 352.872 34.2614 353.322 34.2614ZM363.374 36.1705C362.499 36.1705 361.743 35.9886 361.107 35.625C360.474 35.2576 359.987 34.7386 359.646 34.0682C359.305 33.3939 359.135 32.6004 359.135 31.6875C359.135 30.7898 359.305 30.0019 359.646 29.3239C359.991 28.642 360.472 28.1117 361.089 27.733C361.707 27.3504 362.432 27.1591 363.266 27.1591C363.804 27.1591 364.311 27.2462 364.788 27.4205C365.269 27.5909 365.694 27.8561 366.061 28.2159C366.432 28.5758 366.724 29.0341 366.936 29.5909C367.148 30.1439 367.254 30.803 367.254 31.5682V32.1989H360.101V30.8125H365.283C365.279 30.4186 365.194 30.0682 365.027 29.7614C364.86 29.4508 364.627 29.2064 364.328 29.0284C364.033 28.8504 363.688 28.7614 363.294 28.7614C362.874 28.7614 362.504 28.8636 362.186 29.0682C361.868 29.2689 361.62 29.5341 361.442 29.8636C361.268 30.1894 361.179 30.5473 361.175 30.9375V32.1477C361.175 32.6553 361.268 33.0909 361.453 33.4545C361.639 33.8144 361.898 34.0909 362.232 34.2841C362.565 34.4735 362.955 34.5682 363.402 34.5682C363.701 34.5682 363.972 34.5265 364.214 34.4432C364.457 34.3561 364.667 34.2292 364.845 34.0625C365.023 33.8958 365.158 33.6894 365.249 33.4432L367.169 33.6591C367.048 34.1667 366.817 34.6098 366.476 34.9886C366.139 35.3636 365.707 35.6553 365.18 35.8636C364.654 36.0682 364.052 36.1705 363.374 36.1705ZM376.759 39.4545C376.02 39.4545 375.385 39.3542 374.855 39.1534C374.325 38.9564 373.899 38.6913 373.577 38.358C373.255 38.0246 373.031 37.6553 372.906 37.25L374.759 36.8011C374.842 36.9716 374.963 37.1402 375.122 37.3068C375.281 37.4773 375.495 37.6174 375.764 37.7273C376.037 37.8409 376.38 37.8977 376.793 37.8977C377.376 37.8977 377.859 37.7557 378.241 37.4716C378.624 37.1913 378.815 36.7292 378.815 36.0852V34.4318H378.713C378.607 34.6439 378.452 34.8617 378.247 35.0852C378.046 35.3087 377.779 35.4962 377.446 35.6477C377.116 35.7992 376.702 35.875 376.202 35.875C375.531 35.875 374.923 35.7178 374.378 35.4034C373.836 35.0852 373.404 34.6117 373.082 33.983C372.764 33.3504 372.605 32.5587 372.605 31.608C372.605 30.6496 372.764 29.8409 373.082 29.1818C373.404 28.5189 373.838 28.017 374.384 27.6761C374.929 27.3314 375.537 27.1591 376.207 27.1591C376.719 27.1591 377.139 27.2462 377.469 27.4205C377.802 27.5909 378.067 27.7973 378.264 28.0398C378.461 28.2784 378.611 28.5038 378.713 28.7159H378.827V27.2727H380.855V36.142C380.855 36.8883 380.677 37.5057 380.321 37.9943C379.965 38.483 379.478 38.8485 378.861 39.0909C378.243 39.3333 377.543 39.4545 376.759 39.4545ZM376.776 34.2614C377.211 34.2614 377.582 34.1553 377.889 33.9432C378.196 33.7311 378.429 33.4261 378.588 33.0284C378.747 32.6307 378.827 32.1534 378.827 31.5966C378.827 31.0473 378.747 30.5663 378.588 30.1534C378.433 29.7405 378.202 29.4205 377.895 29.1932C377.592 28.9621 377.219 28.8466 376.776 28.8466C376.317 28.8466 375.935 28.9659 375.628 29.2045C375.321 29.4432 375.09 29.7708 374.935 30.1875C374.779 30.6004 374.702 31.0701 374.702 31.5966C374.702 32.1307 374.779 32.5985 374.935 33C375.094 33.3977 375.327 33.7083 375.634 33.9318C375.944 34.1515 376.325 34.2614 376.776 34.2614ZM382.963 36V27.2727H384.957V28.7273H385.048C385.207 28.2235 385.48 27.8352 385.866 27.5625C386.257 27.286 386.702 27.1477 387.202 27.1477C387.315 27.1477 387.442 27.1534 387.582 27.1648C387.726 27.1723 387.846 27.1856 387.94 27.2045V29.0966C387.853 29.0663 387.715 29.0398 387.526 29.017C387.34 28.9905 387.16 28.9773 386.986 28.9773C386.611 28.9773 386.274 29.0587 385.974 29.2216C385.679 29.3807 385.446 29.6023 385.276 29.8864C385.105 30.1705 385.02 30.4981 385.02 30.8693V36H382.963ZM392.754 36.1705C391.902 36.1705 391.163 35.983 390.538 35.608C389.913 35.233 389.429 34.7083 389.084 34.0341C388.743 33.3598 388.572 32.572 388.572 31.6705C388.572 30.7689 388.743 29.9792 389.084 29.3011C389.429 28.6231 389.913 28.0966 390.538 27.7216C391.163 27.3466 391.902 27.1591 392.754 27.1591C393.607 27.1591 394.345 27.3466 394.97 27.7216C395.595 28.0966 396.078 28.6231 396.419 29.3011C396.764 29.9792 396.936 30.7689 396.936 31.6705C396.936 32.572 396.764 33.3598 396.419 34.0341C396.078 34.7083 395.595 35.233 394.97 35.608C394.345 35.983 393.607 36.1705 392.754 36.1705ZM392.766 34.5227C393.228 34.5227 393.614 34.3958 393.925 34.142C394.235 33.8845 394.466 33.5398 394.618 33.108C394.773 32.6761 394.851 32.1951 394.851 31.6648C394.851 31.1307 394.773 30.6477 394.618 30.2159C394.466 29.7803 394.235 29.4337 393.925 29.1761C393.614 28.9186 393.228 28.7898 392.766 28.7898C392.292 28.7898 391.898 28.9186 391.584 29.1761C391.273 29.4337 391.04 29.7803 390.885 30.2159C390.733 30.6477 390.658 31.1307 390.658 31.6648C390.658 32.1951 390.733 32.6761 390.885 33.108C391.04 33.5398 391.273 33.8845 391.584 34.142C391.898 34.3958 392.292 34.5227 392.766 34.5227ZM404.244 32.3295V27.2727H406.301V36H404.307V34.4489H404.216C404.019 34.9375 403.695 35.3371 403.244 35.6477C402.797 35.9583 402.246 36.1136 401.591 36.1136C401.019 36.1136 400.513 35.9867 400.074 35.733C399.638 35.4754 399.297 35.1023 399.051 34.6136C398.805 34.1212 398.682 33.5265 398.682 32.8295V27.2727H400.739V32.5114C400.739 33.0644 400.89 33.5038 401.193 33.8295C401.496 34.1553 401.894 34.3182 402.386 34.3182C402.689 34.3182 402.983 34.2443 403.267 34.0966C403.551 33.9489 403.784 33.7292 403.966 33.4375C404.152 33.142 404.244 32.7727 404.244 32.3295ZM408.416 39.2727V27.2727H410.439V28.7159H410.558C410.664 28.5038 410.814 28.2784 411.007 28.0398C411.2 27.7973 411.462 27.5909 411.791 27.4205C412.121 27.2462 412.541 27.1591 413.053 27.1591C413.727 27.1591 414.335 27.3314 414.876 27.6761C415.422 28.017 415.854 28.5227 416.172 29.1932C416.494 29.8598 416.655 30.678 416.655 31.6477C416.655 32.6061 416.498 33.4205 416.183 34.0909C415.869 34.7614 415.441 35.2727 414.899 35.625C414.357 35.9773 413.744 36.1534 413.058 36.1534C412.558 36.1534 412.143 36.0701 411.814 35.9034C411.484 35.7367 411.219 35.536 411.018 35.3011C410.821 35.0625 410.668 34.8371 410.558 34.625H410.473V39.2727H408.416ZM410.433 31.6364C410.433 32.2008 410.513 32.6951 410.672 33.1193C410.835 33.5436 411.068 33.875 411.371 34.1136C411.678 34.3485 412.049 34.4659 412.484 34.4659C412.939 34.4659 413.32 34.3447 413.626 34.1023C413.933 33.8561 414.164 33.5208 414.32 33.0966C414.479 32.6686 414.558 32.1818 414.558 31.6364C414.558 31.0947 414.481 30.6136 414.325 30.1932C414.17 29.7727 413.939 29.4432 413.632 29.2045C413.325 28.9659 412.943 28.8466 412.484 28.8466C412.045 28.8466 411.672 28.9621 411.365 29.1932C411.058 29.4242 410.825 29.7481 410.666 30.1648C410.511 30.5814 410.433 31.072 410.433 31.6364ZM425.314 29.5795L423.439 29.7841C423.386 29.5947 423.293 29.4167 423.161 29.25C423.032 29.0833 422.857 28.9489 422.638 28.8466C422.418 28.7443 422.149 28.6932 421.831 28.6932C421.403 28.6932 421.043 28.786 420.751 28.9716C420.464 29.1572 420.321 29.3977 420.325 29.6932C420.321 29.947 420.414 30.1534 420.604 30.3125C420.797 30.4716 421.115 30.6023 421.558 30.7045L423.047 31.0227C423.873 31.2008 424.486 31.483 424.888 31.8693C425.293 32.2557 425.498 32.7614 425.501 33.3864C425.498 33.9356 425.337 34.4205 425.018 34.8409C424.704 35.2576 424.267 35.5833 423.706 35.8182C423.145 36.053 422.501 36.1705 421.774 36.1705C420.706 36.1705 419.846 35.947 419.195 35.5C418.543 35.0492 418.155 34.4223 418.03 33.6193L420.036 33.4261C420.126 33.8201 420.32 34.1174 420.615 34.3182C420.911 34.5189 421.295 34.6193 421.768 34.6193C422.257 34.6193 422.649 34.5189 422.945 34.3182C423.244 34.1174 423.393 33.8693 423.393 33.5739C423.393 33.3239 423.297 33.1174 423.104 32.9545C422.914 32.7917 422.619 32.6667 422.217 32.5795L420.729 32.267C419.892 32.0928 419.272 31.7992 418.871 31.3864C418.469 30.9697 418.27 30.4432 418.274 29.8068C418.27 29.2689 418.416 28.803 418.712 28.4091C419.011 28.0114 419.426 27.7045 419.956 27.4886C420.49 27.2689 421.106 27.1591 421.803 27.1591C422.825 27.1591 423.63 27.3769 424.217 27.8125C424.808 28.2481 425.174 28.8371 425.314 29.5795ZM429.163 32.5795V32.4318C429.167 31.7462 429.232 31.2008 429.357 30.7955C429.485 30.3902 429.667 30.0644 429.902 29.8182C430.137 29.5682 430.423 29.339 430.76 29.1307C430.991 28.9867 431.197 28.8295 431.379 28.6591C431.565 28.4848 431.711 28.2917 431.817 28.0795C431.923 27.8636 431.976 27.6231 431.976 27.358C431.976 27.0587 431.906 26.7992 431.766 26.5795C431.625 26.3598 431.436 26.1894 431.197 26.0682C430.963 25.947 430.699 25.8864 430.408 25.8864C430.139 25.8864 429.883 25.9451 429.641 26.0625C429.402 26.1761 429.203 26.3504 429.044 26.5852C428.889 26.8163 428.802 27.1098 428.783 27.4659H426.76C426.779 26.7462 426.953 26.1439 427.283 25.6591C427.616 25.1742 428.055 24.8106 428.601 24.5682C429.15 24.3258 429.756 24.2045 430.419 24.2045C431.143 24.2045 431.779 24.3314 432.328 24.5852C432.881 24.839 433.311 25.2008 433.618 25.6705C433.929 26.1364 434.084 26.6894 434.084 27.3295C434.084 27.7614 434.014 28.1477 433.874 28.4886C433.737 28.8295 433.542 29.1326 433.288 29.3977C433.035 29.6629 432.733 29.8996 432.385 30.108C432.078 30.2973 431.826 30.4943 431.629 30.6989C431.436 30.9034 431.292 31.1439 431.197 31.4205C431.107 31.6932 431.059 32.0303 431.055 32.4318V32.5795H429.163ZM430.152 36.125C429.811 36.125 429.518 36.0038 429.271 35.7614C429.025 35.5189 428.902 35.2235 428.902 34.875C428.902 34.5341 429.025 34.2424 429.271 34C429.518 33.7576 429.811 33.6364 430.152 33.6364C430.489 33.6364 430.781 33.7576 431.027 34C431.277 34.2424 431.402 34.5341 431.402 34.875C431.402 35.1061 431.343 35.3163 431.226 35.5057C431.112 35.6951 430.961 35.8466 430.771 35.9602C430.586 36.0701 430.379 36.125 430.152 36.125Z" fill="#28262C"/>
<path fill-rule="evenodd" clip-rule="evenodd" d="M805.855 25.496C805.911 25.4401 805.977 25.3957 806.05 25.3654C806.123 25.3351 806.201 25.3195 806.28 25.3195C806.359 25.3195 806.437 25.3351 806.51 25.3654C806.583 25.3957 806.649 25.4401 806.705 25.496L813.48 32.272L820.255 25.496C820.368 25.3833 820.521 25.32 820.68 25.32C820.839 25.32 820.992 25.3833 821.105 25.496C821.218 25.6087 821.281 25.7616 821.281 25.921C821.281 26.0804 821.218 26.2333 821.105 26.346L813.905 33.546C813.849 33.6019 813.783 33.6463 813.71 33.6766C813.637 33.7069 813.559 33.7225 813.48 33.7225C813.401 33.7225 813.323 33.7069 813.25 33.6766C813.177 33.6463 813.111 33.6019 813.055 33.546L805.855 26.346C805.799 26.2903 805.755 26.224 805.724 26.1511C805.694 26.0782 805.679 26 805.679 25.921C805.679 25.842 805.694 25.7638 805.724 25.6909C805.755 25.618 805.799 25.5517 805.855 25.496Z" fill="#28262C"/>
<defs>
<linearGradient id="paint0_linear_1_206" x1="-9" y1="0.999985" x2="867" y2="59" gradientUnits="userSpaceOnUse">
<stop stop-color="#217EEC"/>
<stop offset="1" stop-color="#082299"/>
</linearGradient>
</defs>
</svg>
